<svg width="268" height="247" viewBox="0 0 268 247" fill="none" xmlns="http://www.w3.org/2000/svg">
<path d="M249.646 112.947C241.682 95.7013 231.794 82.5957 221.035 72.5753C231.425 64.058 237.147 50.425 234.879 36.1856C231.477 14.8791 211.437 0.375922 190.13 3.80394C170.643 6.91553 156.878 23.9765 157.3 43.1734C134.649 40.0882 117.562 43.6481 117.562 43.6481C117.562 43.6481 100.237 45.5994 79.6687 55.6198C74.052 37.2667 55.6725 25.3477 36.1856 28.4857C14.8791 31.9137 0.375922 51.9545 3.80394 73.2609C6.07171 87.474 15.802 98.6546 28.3275 103.48C21.2341 116.349 15.9339 131.88 13.7452 150.761C2.59095 247.51 97.4417 248.354 149.047 240.1C200.651 231.82 290.492 201.363 249.646 112.947Z" fill="white"/>
<path d="M105.3 175.996C105.3 175.996 117.72 192.108 137.022 165.633C163.629 184.751 170.406 165.554 170.406 165.554C170.406 165.554 163.708 193.69 142.085 197.171C120.462 200.625 105.3 175.996 105.3 175.996Z" stroke="#76768D" stroke-width="6.60357" stroke-linecap="round" stroke-linejoin="round"/>
<path d="M124.444 151.024C124.708 152.606 133.7 156.245 135.572 155.955C137.418 155.665 144.854 149.389 144.59 147.781C144.326 146.199 139.606 145.619 134.042 146.515C128.478 147.412 124.18 149.416 124.418 150.998L124.444 151.024Z" fill="#76768D"/>
<path d="M181.138 160.913C183.169 173.623 195.14 182.298 207.85 180.241C220.56 178.211 229.236 166.239 227.179 153.529C225.149 140.819 213.177 132.144 200.467 134.2C187.757 136.231 179.081 148.203 181.138 160.913Z" fill="#FCEFF9"/>
<path d="M93.8291 174.915C95.8596 187.625 87.2104 199.597 74.5003 201.627C61.7903 203.658 49.8186 195.008 47.7882 182.298C45.7577 169.588 54.4069 157.617 67.1169 155.586C79.827 153.556 91.7987 162.205 93.8291 174.915Z" fill="#FCEFF9"/>
<path d="M94.1191 150.049C95.5694 159.04 91.7986 167.11 85.7073 168.085C79.616 169.061 73.5246 162.574 72.0743 153.582C70.624 144.59 74.3948 136.521 80.4862 135.545C86.5775 134.57 92.6688 141.057 94.1191 150.049Z" fill="#76768D"/>
<path opacity="0.08" d="M92.3524 157.432C93.0644 161.915 90.0055 166.16 85.5227 166.872C81.0399 167.584 76.7945 164.525 76.0825 160.043C75.3705 155.56 78.4294 151.314 82.9122 150.602C87.395 149.89 91.6404 152.949 92.3524 157.432Z" fill="white"/>
<path d="M172.278 145.408C172.278 145.408 181.56 131.405 203.552 135.15" stroke="#76768D" stroke-width="6.60357" stroke-linecap="round" stroke-linejoin="round"/>
<path d="M249.646 112.947C241.682 95.7013 231.794 82.5957 221.035 72.5753C231.425 64.058 237.147 50.425 234.879 36.1856C231.477 14.8791 211.437 0.375922 190.13 3.80394C170.643 6.91553 156.878 23.9765 157.3 43.1734C134.649 40.0882 117.562 43.6481 117.562 43.6481C117.562 43.6481 100.237 45.5994 79.6687 55.6198C74.052 37.2667 55.6725 25.3477 36.1856 28.4857C14.8791 31.9137 0.375922 51.9545 3.80394 73.2609C6.07171 87.474 15.802 98.6546 28.3275 103.48C21.2341 116.349 15.9339 131.88 13.7452 150.761C2.59095 247.51 97.4417 248.354 149.047 240.1C200.651 231.82 290.492 201.363 249.646 112.947Z" stroke="#76768D" stroke-width="6.60357" stroke-linecap="round" stroke-linejoin="round"/>
<path d="M216.737 103.032L223.065 111.998C223.276 112.314 223.619 112.499 223.988 112.525L234.905 113.475C236.092 113.58 236.514 115.109 235.538 115.795L226.573 122.124C226.256 122.335 226.072 122.677 226.045 123.047L225.096 133.964C224.99 135.15 223.461 135.572 222.775 134.596L216.447 125.631C216.236 125.314 215.893 125.13 215.524 125.103L204.607 124.154C203.42 124.049 202.998 122.519 203.974 121.834L212.94 115.505C213.256 115.294 213.441 114.951 213.467 114.582L214.416 103.665C214.522 102.479 216.051 102.057 216.737 103.032Z" fill="white" stroke="#76768D" stroke-width="6.60357" stroke-linecap="round" stroke-linejoin="round"/>
<path d="M247.299 67.9872L250.674 80.8291C250.78 81.2774 251.096 81.6466 251.518 81.8312L263.516 87.5533C264.808 88.1862 264.65 90.0848 263.252 90.454L250.411 93.8292C249.962 93.9347 249.593 94.2512 249.408 94.6731L243.686 106.671C243.053 107.963 241.155 107.805 240.786 106.407L237.41 93.5656C237.305 93.1173 236.988 92.7481 236.567 92.5635L224.569 86.8414C223.276 86.2085 223.435 84.3099 224.832 83.9407L237.674 80.5654C238.122 80.46 238.492 80.1435 238.676 79.7216L244.398 67.7235C245.031 66.4314 246.93 66.5897 247.299 67.9872Z" fill="white" stroke="#76768D" stroke-width="6.60357" stroke-linecap="round" stroke-linejoin="round"/>
</svg>
