<svg width="262" height="240" viewBox="0 0 262 240" fill="none" xmlns="http://www.w3.org/2000/svg">
<g clip-path="url(#clip0_2020_609)">
<path d="M253.915 123.891C248.625 105.073 240.703 90.1594 231.424 78.2557C243.361 71.287 251.419 58.3799 251.419 43.5748C251.419 21.3943 233.432 3.41666 211.239 3.41666C190.918 3.41666 174.178 18.4929 171.465 38.0432C148.947 31.2101 131.014 32.0507 131.014 32.0507C131.014 32.0507 113.08 31.2101 90.5619 38.0432C87.8489 18.4929 71.1093 3.41666 50.7885 3.41666C28.5957 3.38954 10.6081 21.3672 10.6081 43.5477C10.6081 58.3528 18.6659 71.2598 30.6034 78.2285C21.2976 90.1323 13.3754 105.046 8.11212 123.864C-18.9642 220.287 77.2408 236.584 131.014 236.584C184.786 236.584 280.991 220.287 253.915 123.864V123.891Z" fill="white"/>
<path d="M120.514 142.14C120.514 143.794 129.087 148.973 131.014 148.973C132.94 148.973 141.513 143.821 141.513 142.14C141.513 140.459 136.82 139.13 131.014 139.13C125.208 139.13 120.514 140.459 120.514 142.14Z" fill="#76768D"/>
<g opacity="0.8">
<path d="M222.627 170.655C227.723 158.436 221.944 144.401 209.718 139.307C197.492 134.214 183.449 139.99 178.353 152.209C173.256 164.428 179.036 178.463 191.261 183.557C203.487 188.651 217.53 182.874 222.627 170.655Z" fill="#FCEFF9"/>
<path d="M70.7598 183.543C82.9857 178.45 88.7651 164.415 83.6684 152.196C78.5718 139.976 64.5291 134.2 52.3032 139.294C40.0773 144.388 34.2979 158.423 39.3946 170.642C44.4912 182.861 58.5339 188.637 70.7598 183.543Z" fill="#FCEFF9"/>
</g>
<path d="M173.88 126.901C172.686 129.585 171.981 132.785 171.981 136.229C171.981 145.583 177.109 153.176 183.457 153.176C189.806 153.176 194.933 145.583 194.933 136.229C194.933 134.086 194.662 132.026 194.147 130.128L173.853 126.901H173.88Z" fill="#76768D"/>
<path opacity="0.08" d="M174.992 143.442C174.992 148.133 178.79 151.929 183.484 151.929C188.178 151.929 191.976 148.133 191.976 143.442C191.976 138.751 188.178 134.954 183.484 134.954C178.79 134.954 174.992 138.751 174.992 143.442Z" fill="white"/>
<path d="M168.4 126.033L200.468 131.131" stroke="#76768D" stroke-width="6.6" stroke-linecap="round" stroke-linejoin="round"/>
<path d="M87.9845 126.901C89.1782 129.585 89.8836 132.785 89.8836 136.229C89.8836 145.583 84.7559 153.176 78.4074 153.176C72.0588 153.176 66.9312 145.583 66.9312 136.229C66.9312 134.086 67.2025 132.026 67.7179 130.128L88.0116 126.901H87.9845Z" fill="#76768D"/>
<path opacity="0.08" d="M86.8722 143.442C86.8722 148.133 83.0739 151.929 78.3803 151.929C73.6867 151.929 69.8884 148.133 69.8884 143.442C69.8884 138.751 73.6867 134.954 78.3803 134.954C83.0739 134.954 86.8722 138.751 86.8722 143.442Z" fill="white"/>
<path d="M93.4377 126.033L61.3694 131.131" stroke="#76768D" stroke-width="6.6" stroke-linecap="round" stroke-linejoin="round"/>
<path d="M253.915 123.891C248.625 105.073 240.703 90.1594 231.424 78.2557C243.361 71.287 251.419 58.3799 251.419 43.5748C251.419 21.3943 233.432 3.41666 211.239 3.41666C190.918 3.41666 174.178 18.4929 171.465 38.0432C148.947 31.2101 131.014 32.0507 131.014 32.0507C131.014 32.0507 113.08 31.2101 90.5619 38.0432C87.8489 18.4929 71.1093 3.41666 50.7885 3.41666C28.5957 3.38954 10.6081 21.3672 10.6081 43.5477C10.6081 58.3528 18.6659 71.2598 30.6034 78.2285C21.2976 90.1323 13.3754 105.046 8.11212 123.864C-18.9642 220.287 77.2408 236.584 131.014 236.584C184.786 236.584 280.991 220.287 253.915 123.864V123.891Z" stroke="#76768D" stroke-width="6.6" stroke-linecap="round" stroke-linejoin="round"/>
<path d="M91.62 171.723L99.922 163.615C101.143 162.422 103.042 162.341 104.371 163.425L112.619 170.15C113.759 171.072 115.386 171.153 116.607 170.313L131.041 160.497H130.959L145.393 170.313C146.614 171.153 148.242 171.072 149.381 170.15L157.629 163.425C158.931 162.341 160.857 162.449 162.078 163.615L170.38 171.723" stroke="#76768D" stroke-width="6.6" stroke-linecap="round" stroke-linejoin="round"/>
<path opacity="0.6" d="M190.077 150.491C190.077 156.918 196.344 162.151 204.049 162.151C211.754 162.151 218.021 156.918 218.021 150.491C218.021 144.065 211.754 138.832 204.049 138.832C196.344 138.832 190.077 144.065 190.077 150.491Z" fill="#76768D"/>
<path d="M194.635 150.654C196.073 150.654 197.24 149.488 197.24 148.051C197.24 146.613 196.073 145.448 194.635 145.448C193.197 145.448 192.031 146.613 192.031 148.051C192.031 149.488 193.197 150.654 194.635 150.654Z" fill="white"/>
<path opacity="0.6" d="M71.9502 150.491C71.9502 156.918 65.6831 162.151 57.978 162.151C50.2729 162.151 44.0057 156.918 44.0057 150.491C44.0057 144.065 50.2729 138.832 57.978 138.832C65.6831 138.832 71.9502 144.065 71.9502 150.491Z" fill="#76768D"/>
<path d="M49.0791 150.654C50.5176 150.654 51.6837 149.488 51.6837 148.051C51.6837 146.613 50.5176 145.448 49.0791 145.448C47.6407 145.448 46.4746 146.613 46.4746 148.051C46.4746 149.488 47.6407 150.654 49.0791 150.654Z" fill="white"/>
</g>
<defs>
<clipPath id="clip0_2020_609">
<rect width="262" height="240" fill="white"/>
</clipPath>
</defs>
</svg>
