<svg width="71" height="71" viewBox="0 0 71 71" fill="none" xmlns="http://www.w3.org/2000/svg">
<path d="M29.0474 7.2731C30.5914 0.908965 39.6447 0.908965 41.1886 7.2731C41.4203 8.22917 41.8744 9.11703 42.514 9.86442C43.1537 10.6118 43.9607 11.1976 44.8695 11.5741C45.7784 11.9507 46.7633 12.1073 47.744 12.0312C48.7248 11.9552 49.6738 11.6486 50.5137 11.1365C56.1059 7.72976 62.5099 14.1301 59.1031 19.7259C58.5918 20.5655 58.2857 21.5139 58.2098 22.494C58.134 23.4741 58.2904 24.4583 58.6665 25.3666C59.0426 26.2749 59.6277 27.0816 60.3743 27.7212C61.1208 28.3608 62.0077 28.8152 62.9629 29.0474C69.3271 30.5914 69.3271 39.6447 62.9629 41.1886C62.0069 41.4203 61.119 41.8744 60.3716 42.514C59.6242 43.1537 59.0384 43.9607 58.6619 44.8695C58.2854 45.7784 58.1288 46.7633 58.2048 47.744C58.2808 48.7248 58.5874 49.6738 59.0995 50.5137C62.5063 56.1059 56.1059 62.5099 50.5101 59.1031C49.6705 58.5918 48.7221 58.2857 47.742 58.2098C46.7619 58.134 45.7777 58.2904 44.8694 58.6665C43.9612 59.0426 43.1545 59.6277 42.5149 60.3743C41.8753 61.1208 41.4209 62.0077 41.1886 62.9629C39.6447 69.3271 30.5914 69.3271 29.0474 62.9629C28.8158 62.0069 28.3617 61.119 27.722 60.3716C27.0824 59.6242 26.2753 59.0384 25.3665 58.6619C24.4577 58.2854 23.4728 58.1288 22.492 58.2048C21.5112 58.2808 20.5622 58.5874 19.7223 59.0995C14.1301 62.5063 7.72613 56.1059 11.1329 50.5101C11.6443 49.6705 11.9503 48.7221 12.0262 47.742C12.1021 46.7619 11.9456 45.7777 11.5695 44.8694C11.1934 43.9612 10.6083 43.1545 9.86179 42.5149C9.11524 41.8753 8.22832 41.4209 7.2731 41.1886C0.908965 39.6447 0.908965 30.5914 7.2731 29.0474C8.22917 28.8158 9.11703 28.3617 9.86442 27.722C10.6118 27.0824 11.1976 26.2753 11.5741 25.3665C11.9507 24.4577 12.1073 23.4728 12.0312 22.492C11.9552 21.5112 11.6486 20.5622 11.1365 19.7223C7.72976 14.1301 14.1301 7.72613 19.7259 11.1329C23.3502 13.3364 28.0472 11.3866 29.0474 7.2731Z" stroke="#8D8DA6" stroke-width="5" stroke-linecap="round" stroke-linejoin="round"/>
<path d="M24.2456 35.1181C24.2456 38.0017 25.3911 40.7672 27.4301 42.8062C29.4692 44.8453 32.2347 45.9908 35.1183 45.9908C38.0019 45.9908 40.7674 44.8453 42.8064 42.8062C44.8454 40.7672 45.991 38.0017 45.991 35.1181C45.991 32.2345 44.8454 29.469 42.8064 27.43C40.7674 25.3909 38.0019 24.2454 35.1183 24.2454C32.2347 24.2454 29.4692 25.3909 27.4301 27.43C25.3911 29.469 24.2456 32.2345 24.2456 35.1181Z" fill="#FBE4F2" stroke="#8D8DA6" stroke-width="5" stroke-linecap="round" stroke-linejoin="round"/>
</svg>
