<svg width="71" height="71" viewBox="0 0 71 71" fill="none" xmlns="http://www.w3.org/2000/svg">
<path d="M20.5 51.5L14 61L20.5 64L37.5 68L57 61L49.5 51.5H39H20.5Z" fill="#DBDBFF"/>
<path d="M4.98724 47.6792C3.34516 43.7149 2.5 39.4659 2.5 35.175C2.5 30.8841 3.34516 26.6351 4.98724 22.6708C6.62931 18.7065 9.03613 15.1044 12.0703 12.0703C15.1044 9.03613 18.7065 6.62931 22.6708 4.98724C26.6351 3.34516 30.8841 2.5 35.175 2.5C39.4659 2.5 43.7149 3.34516 47.6792 4.98724C51.6435 6.62931 55.2456 9.03613 58.2797 12.0703C61.3139 15.1044 63.7207 18.7065 65.3628 22.6708C67.0048 26.6351 67.85 30.8841 67.85 35.175C67.85 39.4659 67.0048 43.7149 65.3628 47.6792C63.7207 51.6435 61.3139 55.2456 58.2797 58.2797C55.2456 61.3139 51.6435 63.7207 47.6792 65.3628C43.7149 67.0048 39.4659 67.85 35.175 67.85C30.8841 67.85 26.6351 67.0048 22.6708 65.3628C18.7065 63.7207 15.1044 61.3139 12.0703 58.2797C9.03613 55.2456 6.62931 51.6435 4.98724 47.6792Z" stroke="#8D8DA6" stroke-width="5" stroke-linecap="round" stroke-linejoin="round"/>
<path d="M24.2832 27.9139C24.2832 30.8025 25.4307 33.5729 27.4733 35.6155C29.5159 37.658 32.2862 38.8055 35.1749 38.8055C38.0635 38.8055 40.8339 37.658 42.8764 35.6155C44.919 33.5729 46.0665 30.8025 46.0665 27.9139C46.0665 25.0252 44.919 22.2549 42.8764 20.2123C40.8339 18.1697 38.0635 17.0222 35.1749 17.0222C32.2862 17.0222 29.5159 18.1697 27.4733 20.2123C25.4307 22.2549 24.2832 25.0252 24.2832 27.9139Z" fill="#E3F4FF" stroke="#8D8DA6" stroke-width="5" stroke-linecap="round" stroke-linejoin="round"/>
<path d="M14.0015 60.0407C14.9001 57.0499 16.7388 54.4285 19.2449 52.5653C21.751 50.702 24.7909 49.6963 27.9138 49.6972H42.436C45.5628 49.6961 48.6065 50.7043 51.1144 52.5718C53.6223 54.4393 55.4605 57.0664 56.3555 60.0624" stroke="#8D8DA6" stroke-width="5" stroke-linecap="round" stroke-linejoin="round"/>
</svg>
